<svg xmlns="http://www.w3.org/2000/svg" xmlns:xlink="http://www.w3.org/1999/xlink" id="Cross" x="0" y="0" version="1.1" viewBox="0 0 20 20" xml:space="preserve" style="enable-background:new 0 0 20 20"><style type="text/css">.st0{fill:#fff}</style><path d="M14.3,14.8c-0.5,0.5-1.2,0.5-1.7,0l-2.7-3l-2.7,3c-0.5,0.5-1.2,0.5-1.7,0c-0.5-0.5-0.5-1.2,0-1.7L8.4,10	L5.7,6.8c-0.5-0.5-0.5-1.2,0-1.7s1.2-0.5,1.7,0l2.7,3l2.7-3c0.5-0.5,1.2-0.5,1.7,0s0.5,1.2,0,1.7L11.6,10l2.8,3.1	C14.8,13.6,14.8,14.4,14.3,14.8z" class="st0"/></svg>